<svg xmlns="http://www.w3.org/2000/svg" viewBox="0 0 353 287" fill="#fff"><path d="M353 123.5H203.1l.7 3.8c.9 5 .9 28.9 0 33l-.7 3.2H353zM326 14.9L311.4.5H14.2L0 15v39.9l13.4 13.6 11.7.1C31 58.1 43.3 49.7 50.7 40.5h183.8L259 66.9c13.5.3 37.9 1.4 53.4 1.6L326 55.1zm0 218l-14.6-14.4-52.4 1.7c-8.2 9.2-15.4 16.3-24.4 26.3H50.5L26 220.3c-1.8-3.5-8.6-1.2-12-1.8L0 232.8v40.1l13.4 13.6h299l13.6-13.4zM244 73l-17-17.5H57.5L41 72v20.5H24v38h17v34H25v30h16v20.8l16.1 16.2h170.4L244 215v-36.5h-47.7l-9.4 9.3c-17.6 17.4-19 17.7-71.8 17.7H74.6l-7.6-7.4V88.9l7.7-7.5 42.4.3c40.5.3 42.7.4 48.2 2.5 8.3 3.1 15.8 8.4 23.6 16.9l6.9 7.4H244zm-54 68.8c-.1-4.1-.7-8.1-1.8-12-3.6-12.1-11.9-22.3-23-28.2-10.2-5.4-15.9-6.1-51.4-6.1H82v95h34.3c36.4 0 37.7-.1 48.2-5 7.7-3.6 18.3-15 21.9-23.5 2.6-6.4 3.8-13.3 3.6-20.2z"/></svg>