<svg xmlns="http://www.w3.org/2000/svg" viewBox="0 0 514.84 69.03"><defs><style>.cls-1{fill:#fff}</style></defs><path class="cls-1" d="M121.2 68.94a9.4 9.4 0 0 1-4.12-.65 2.24 2.24 0 0 1-1.21-2.16c0-1.36 1.08-2.41 3.22-3.14l1.12-.38a4.09 4.09 0 0 0 1.92-1.31 6 6 0 0 0 .49-3V10.74a6 6 0 0 0-.49-3 4.08 4.08 0 0 0-1.92-1.3c-.25-.1-.62-.23-1.12-.39-2.09-.7-3.22-1.74-3.22-3.05a2.28 2.28 0 0 1 1.21-2.23 9.43 9.43 0 0 1 4.12-.64h31.33v68.81zm35.17 0v-5.86q5.2-.09 7.28-2c1.38-1.28 2.07-3.5 2.07-6.64v-10q0-4.71-2.1-6.61c-1.41-1.27-3.82-1.92-7.25-2V30c3.43-.06 5.84-.74 7.25-2s2.1-3.51 2.1-6.62v-6.74q0-4.71-2.07-6.64c-1.38-1.28-3.81-2-7.28-2V.13c.66 0 1.36-.06 2.11-.07s1.81 0 3.22 0q17.4 0 25.23 4.12t7.84 13.15q0 7.05-6.35 11.19T170.68 33q12.31.67 18.85 5.19a14.26 14.26 0 0 1 6.54 12.37q0 9.46-8.58 14T161 69h-2.29c-1.03 0-1.8-.06-2.34-.06zM231.61 69h-28.53v-6l34.71-63h28.34v6.06zm2.14-69l-3.15 6a27.09 27.09 0 0 0-9.72 2 14.42 14.42 0 0 0-6.09 5 26.7 26.7 0 0 0-2.08 4q-1.67 3.68-3.86 3.67a3.06 3.06 0 0 1-2.89-1.4q-.79-1.41-.8-5.33V0zm1.72 69l3.53-6.41a29.14 29.14 0 0 0 10.46-2.15 14.84 14.84 0 0 0 6.66-5.3 27.84 27.84 0 0 0 2.32-4.34c1.18-2.84 2.65-4.25 4.39-4.25A3.36 3.36 0 0 1 266 48c.58.94.86 2.92.86 5.95V69zM310.49 57.58v2q0 2.24 3.59 3.34l.36.09a7.94 7.94 0 0 1 3.07 1.36 2.54 2.54 0 0 1 .81 2 2.15 2.15 0 0 1-1.31 2.1 13.1 13.1 0 0 1-4.9.62h-31.85a8.82 8.82 0 0 1-4-.64 2.28 2.28 0 0 1-1.16-2.17q0-2.06 3.1-3.15.72-.24 1.08-.39a3.92 3.92 0 0 0 1.85-1.31 6.12 6.12 0 0 0 .48-3V10.67a6.15 6.15 0 0 0-.48-3 4 4 0 0 0-1.85-1.31c-.24-.1-.6-.22-1.08-.38-2.07-.74-3.1-1.77-3.1-3.11a2.3 2.3 0 0 1 1.19-2.19 8.79 8.79 0 0 1 4-.65h30.23zM314.56 0h26.28v18.31a3 3 0 0 1-.92 2.29 3.53 3.53 0 0 1-2.48.86c-1.83 0-3.39-1.34-4.66-4a19 19 0 0 0-2.33-3.91 17.84 17.84 0 0 0-6.66-4.92 27.38 27.38 0 0 0-9.23-2.24zm0 36.65v-6.32a12.72 12.72 0 0 0 4.09-1.55 6.71 6.71 0 0 0 2.24-2.55c.44-.8 1-1.83 1.55-3.1 1-2.23 2.31-3.34 3.95-3.34a3 3 0 0 1 2.61 1.14 7.52 7.52 0 0 1 .81 4.11v17.32a6.56 6.56 0 0 1-.81 3.77 3.06 3.06 0 0 1-2.65 1.09c-1.68 0-3-1.11-4-3.34-.56-1.2-1.05-2.21-1.49-3a6.64 6.64 0 0 0-2.27-2.63 12.82 12.82 0 0 0-4.03-1.57zM352.59 69a6 6 0 0 1-2.83-.48 1.74 1.74 0 0 1-.83-1.64c0-1 .73-1.82 2.21-2.37l.77-.29a2.88 2.88 0 0 0 1.32-1 4.85 4.85 0 0 0 .34-2.25v-36a4.88 4.88 0 0 0-.34-2.25 2.88 2.88 0 0 0-1.32-1l-.77-.28c-1.48-.55-2.21-1.33-2.21-2.34a1.76 1.76 0 0 1 .83-1.67 5.86 5.86 0 0 1 2.83-.49h22.54a5.88 5.88 0 0 1 2.83.49 1.78 1.78 0 0 1 .83 1.67q0 1.51-2.22 2.34l-.76.28a2.78 2.78 0 0 0-1.32 1 4.88 4.88 0 0 0-.34 2.25V69zm24.2 0v-4.75a14.39 14.39 0 0 0 6.52-1.78 11.94 11.94 0 0 0 4.47-4.47 26.48 26.48 0 0 0 1.66-3.92q1.15-3.24 2.86-3.24a2.34 2.34 0 0 1 2.21 1c.4.68.6 2.31.6 4.87V69zM419.56 34.33l-8 24a7.25 7.25 0 0 0-.34 1.13 5.88 5.88 0 0 0-.11 1.06 3.26 3.26 0 0 0 .67 2.05 4.23 4.23 0 0 0 1.94 1.33c.33.15.73.3 1.21.47 1.56.55 2.34 1.34 2.34 2.38a1.81 1.81 0 0 1-1.08 1.7 7.86 7.86 0 0 1-3.46.56h-11.28a8.32 8.32 0 0 1-3.41-.48 1.77 1.77 0 0 1-1-1.71c0-1.11.93-1.9 2.79-2.38a12.18 12.18 0 0 0 1.62-.5 6.9 6.9 0 0 0 2.56-2 12.24 12.24 0 0 0 1.79-3.58l11.06-32.9zm9.3 21.76h-13.53l1.85-5.33h10.1l-9-29.38 1.55-4.38h19.4l13.53 43.9c.09.27.19.57.31.9a3.08 3.08 0 0 1 .18.61c0 .72.82 1.4 2.47 2s2.47 1.4 2.47 2.34a1.79 1.79 0 0 1-1.05 1.78 12 12 0 0 1-4.2.48H432a9.8 9.8 0 0 1-4-.56 1.94 1.94 0 0 1-1.15-1.88c0-.82.65-1.53 1.94-2.13s1.93-1.28 1.93-2a2.55 2.55 0 0 0-.07-.48c0-.23-.11-.51-.2-.85zM485.67 64.77V69q-13-1-20.15-7.78T458.35 43q0-11.37 7.13-18.15T485.67 17v4.3a4.68 4.68 0 0 0-3.43 1.62c-.62.88-.93 2.55-.93 5v30.23q0 3.68.93 5a4.57 4.57 0 0 0 3.43 1.62zm2.77 4.23v-4.44a4.41 4.41 0 0 0 3-1 4.37 4.37 0 0 0 .84-3V49.65a3.14 3.14 0 0 0-.34-1.77 3.34 3.34 0 0 0-1.39-.79l-.81-.25c-1.7-.5-2.54-1.3-2.54-2.39a1.56 1.56 0 0 1 .88-1.54 8.11 8.11 0 0 1 3.2-.43h20.02a5.33 5.33 0 0 1 2.7.52 1.74 1.74 0 0 1 .88 1.58 2.06 2.06 0 0 1-.36 1.27 3.81 3.81 0 0 1-1.5 1 2.43 2.43 0 0 0-1 .76 3 3 0 0 0-.27 1.49v12.62a43 43 0 0 1-11 5.32A44 44 0 0 1 488.44 69zm23-36.82v.76a4.24 4.24 0 0 1-.84 3 3.68 3.68 0 0 1-2.79.9q-2.73 0-4.45-3.88a26.54 26.54 0 0 0-2.59-4.65 17.56 17.56 0 0 0-5.56-5 15 15 0 0 0-6.73-1.94V17a40.93 40.93 0 0 1 8.8 1.46 39.17 39.17 0 0 0 5.22 1.25 3.77 3.77 0 0 0 2.45-1.27 4.59 4.59 0 0 1 3.31-1.27 4.2 4.2 0 0 1 2.45.54 2.81 2.81 0 0 1 .73 2.31v12.16zM85.16 29.71H49l.17.91a48.06 48.06 0 0 1 0 8l-.17.78h36.16zm-6.51-26.2L75.13 0H3.43L0 3.53v9.63l3.23 3.28h2.83c1.42-2.53 4.39-4.56 6.17-6.78h44.35l5.91 6.37c3.25.07 9.14.34 12.88.39l3.28-3.24zm0 52.59l-3.52-3.47-12.64.37c-2 2.22-3.72 3.93-5.89 6.34H12.18l-5.91-6.28c-.43-.84-2.07-.29-2.89-.43L0 56.08v9.67L3.23 69h72.14l3.28-3.23zM58.87 17.52l-4.1-4.22h-40.9l-4 4v4.95H5.79v9.16h4.1v8.19H6v7.24h3.89v5l3.89 3.91h41.11l4-4V43H47.36l-2.27 2.24c-4.24 4.2-4.58 4.27-17.32 4.27H18l-1.84-1.81V21.36L18 19.55l10.23.07c9.77.07 10.3.1 11.63.6a14.65 14.65 0 0 1 5.69 4.08l1.67 1.79h11.65zm-13 16.6a11.23 11.23 0 0 0-.44-2.89 11.4 11.4 0 0 0-5.54-6.81C37.4 23.12 36 23 27.46 23h-7.68v22.87h8.28c8.78 0 9.09 0 11.63-1.21A13.32 13.32 0 0 0 45 39a11.91 11.91 0 0 0 .84-4.88z"/></svg>
