<svg width="128" height="128" viewBox="0 0 96 96" xmlns="http://www.w3.org/2000/svg"><g style="fill:#fff"><path d="M389.87 473.48a58.78 58.78 0 0 1-24.191 5.598 60.856 60.856 0 0 1-34.551-11.2 61.26 61.26 0 0 1-39.199 36.29H427.332a61.995 61.995 0 0 1-37.465-30.688zM246.62 383.66a4.971 4.971 0 0 0 1.453-.672 508.24 508.24 0 0 1 2.856-21.28h.004a26.365 26.365 0 0 1 1.789-11.2c7.672-43.062 18.37-73.305 33.152-91.672a2.806 2.806 0 1 1 4.367 3.527 92.273 92.273 0 0 0-4.48 6.16c-11.2 16.802-20.048 42.337-26.435 76.665h.676a12.101 12.101 0 0 1 3.64 0c4.368.953 11.2 4.593 21.728 15.176 1.344-61.543 36.625-111.16 80.305-111.16 38.527 0 70.727 38.809 78.398 90.44a37.69 37.69 0 0 1 16.8-16.8 16.743 16.743 0 0 1 5.602-1.063 171.643 171.643 0 0 0-20.887-52.977c-1.457-2.183-2.91-4.258-4.425-6.16a2.686 2.686 0 0 1 .39-3.922 2.756 2.756 0 0 1 2.043-.633 2.75 2.75 0 0 1 1.88 1.028c11.198 14.113 20.495 35.223 27.44 63.84 14.953 5.601 15.344 30.8 15.68 51.297 0 9.742 0 19.824 2.297 22.398 2.297 2.574 7.168 2.015 14-.895a427.764 427.764 0 0 0 1.398-23.465V347.82c0-56-72.016-152.82-72.016-152.82l-8.343-72.801c0-66.81-60.258-66.191-60.258-66.191s-60.48-.617-60.48 65.91L297.13 195s-72.016 96.77-72.016 152.82v7s-.281 6.777 0 17.359v5.152c9.125 3.473 18.48 7.113 21.504 6.328zm118.77-235.54c16.801 1.566 43.566 5.602 44.801 13.887.895 6.383-9.465 18.594-11.535 20.945-4.313 4.871-19.32 20.832-32.871 20.832-13.551 0-28.559-15.961-32.816-20.832-2.07-2.352-12.434-14.559-11.594-20.945 1.008-8.457 28.059-12.32 44.016-13.887z" style="fill:#fff" transform="matrix(.2142 0 0 .2142 -26.986 -11.997)"/><path d="M365.68 198.18c7.336 0 18.594-7.45 28.617-18.93 7.672-8.68 10.473-15.062 10.246-16.52-1.398-2.856-19.711-7.168-39.199-9.07-18.871 1.902-37.184 6.214-38.586 9.183h.004a39.205 39.205 0 0 0 10.301 16.352c10.082 11.535 21.281 18.984 28.617 18.984zM380.8 439.43c-6.441-58.969-.504-71.176 4.535-75.207v-.004a9.011 9.011 0 0 1 8.848-1.285 36.83 36.83 0 0 1 12.938 10.637c6.328 6.886 10.754 11.199 14.84 8.847 2.91-1.734 7.055-11.199 11.199-19.879 2.129-4.648 4.312-9.632 6.719-14.39-5.602-52.696-36.398-93.353-73.977-93.353-41.273 0-74.816 49-74.816 109.2v2.184c6.832 7.168 15.008 16.801 24.977 29.398v.004a145.07 145.07 0 0 1 10.754 15.512 62.489 62.489 0 0 1 6.382 51.07 56.007 56.007 0 0 0 32.535 11.2 53.375 53.375 0 0 0 21.84-4.759 60.13 60.13 0 0 1-3.527-10.418 161.45 161.45 0 0 1-3.246-18.758z" style="fill:#fff" transform="matrix(.2142 0 0 .2142 -26.986 -11.997)"/><path d="M311.47 399c-7.84-9.969-14.504-17.863-20.215-24.246l-2.86-3.137-2.91-3.136c-12.938-13.441-19.77-17.137-23.352-17.754a4.906 4.906 0 0 0-1.511 0 3.192 3.192 0 0 0-2.52 1.847 2.222 2.222 0 0 0 0 .395 20.959 20.959 0 0 0-1.289 9.183v7.391a25.59 25.59 0 0 1-3.305 16.352 8.901 8.901 0 0 1-1.902 1.625l-1.176.727c-.754.394-1.539.714-2.355.953h-.617c-4.649.84-12.207-1.903-21.785-5.602l-2.801-1.121c-11.984-4.762-25.984-10.246-36.23-10.246h.004a13.66 13.66 0 0 0-12.207 5.266c-7.504 11.199 9.297 28.785 22.848 43.008 8.344 8.793 14.895 15.68 15.625 20.832 1.289 9.52-8.68 13.16-17.473 16.406a33.678 33.678 0 0 0-12.434 6.273c-1.344 1.566-1.29 2.633-1.008 3.414 1.23 4.313 11.199 13.777 63.895 29.062v.004a154.334 154.334 0 0 0 17.754 4.031 58.481 58.481 0 0 0 31.934-4.12A58.468 58.468 0 0 0 320.486 476a58.75 58.75 0 0 0 5.992-11.816l1.121-2.742c0-.953.504-2.016.785-2.969h-.004a57.513 57.513 0 0 0-6.437-44.8A157.211 157.211 0 0 0 311.47 399zM523.6 395.14a33.525 33.525 0 0 0-13.328 4.2l-6.105 2.632c-6.72 2.574-13.441 3.809-17.81-2.129a13.712 13.712 0 0 1-2.07-5.152 82.186 82.186 0 0 1-1.234-13.383v-7.281c0-16.297-.559-35.895-8.23-43.566a11.169 11.169 0 0 0-3.419-2.41 12.563 12.563 0 0 0-2.183-.727h-.84a11.161 11.161 0 0 0-5.598.785c-6.61 2.688-12.375 11.199-17.414 21.168l-2.406 4.871c-.895 1.902-1.734 3.754-2.574 5.602-.84 1.847-1.567 3.414-2.297 5.097-4.93 11.2-8.793 19.77-13.273 22.398-8.29 4.872-15.512-2.968-21.84-9.91l-.004-.004a33.58 33.58 0 0 0-10.586-9.07 5.044 5.044 0 0 0-1.68-.336 2.681 2.681 0 0 0-1.848.672c-3.472 2.8-8.457 15.625-2.464 70.223a149.567 149.567 0 0 0 3.027 17.918 59.94 59.94 0 0 0 3.023 9.129c.391.84.786 1.68 1.23 2.52.45.84.727 1.679 1.177 2.519a57.345 57.345 0 0 0 96.711 6.777 155.621 155.621 0 0 0 9.914-15.29c26.879-47.878 27.383-61.601 25.312-65.52a3.422 3.422 0 0 0-3.192-1.734z" style="fill:#fff" transform="matrix(.2142 0 0 .2142 -26.986 -11.997)"/></g></svg>