<svg width="128" height="128" viewBox="0 0 96 96" xmlns="http://www.w3.org/2000/svg"><path d="M199.286 97.786h-92.572c-.946 0-1.714.767-1.714 1.714v12h96v-12a1.715 1.715 0 0 0-1.714-1.714zm-85.715 8.571a1.713 1.713 0 1 1 0-3.427 1.713 1.713 0 0 1 0 3.427zm6.858 0a1.713 1.713 0 1 1 0-3.427 1.713 1.713 0 0 1 0 3.427zm6.857 0a1.713 1.713 0 1 1 0-3.427 1.713 1.713 0 0 1 0 3.427zm65.143 0h-37.715a1.714 1.714 0 0 1 0-3.428h37.715a1.714 1.714 0 0 1 0 3.428zM105 171.5a1.715 1.715 0 0 0 1.714 1.714h92.572A1.715 1.715 0 0 0 201 171.5v-56.571h-96zm66.857-29.143H177v-5.143a1.714 1.714 0 0 1 3.429 0v5.143h5.142a1.714 1.714 0 0 1 0 3.429h-5.142v5.143a1.714 1.714 0 0 1-3.429 0v-5.143h-5.143a1.714 1.714 0 0 1 0-3.429zm-20.571 0h5.143v-5.143a1.714 1.714 0 0 1 3.428 0v5.143H165a1.714 1.714 0 0 1 0 3.429h-5.143v5.143a1.714 1.714 0 0 1-3.428 0v-5.143h-5.143a1.714 1.714 0 0 1 0-3.429zm-32.572-8.571A10.294 10.294 0 0 1 129 123.5h6.857a10.294 10.294 0 0 1 10.286 10.286v1.714a1.714 1.714 0 0 1-3.429 0v-1.714a6.863 6.863 0 0 0-6.857-6.857H129a6.863 6.863 0 0 0-6.857 6.857v20.571a6.863 6.863 0 0 0 6.857 6.857h6.857a6.863 6.863 0 0 0 6.857-6.857v-1.714a1.714 1.714 0 0 1 3.429 0v1.714a10.294 10.294 0 0 1-10.286 10.286H129a10.294 10.294 0 0 1-10.286-10.286z" style="fill:#fff;stroke-width:.195918" transform="translate(-105 -87.5)"/></svg>