<svg xmlns="http://www.w3.org/2000/svg" viewBox="0 0 90 88.14" fill="#313546"><path d="M15.8 28.08l-6-6a2.892 2.892 0 0 0-4.07 4.11l6.88 6.47c.54.54 1.27.41 2 .41h5.59a37.16 37.16 0 0 0-7.57 17H2.87a3 3 0 0 0 0 6h9.34a30.13 30.13 0 0 0 3.52 14h-2.08a3 3 0 0 0-2 1l-6.88 7a2.91 2.91 0 0 0 2 5 2.87 2.87 0 0 0 2-.84l6-6h4.64A33.24 33.24 0 0 0 43 88.13V28.08zM87.13 50.08h-10c-1.2-6-4.4-12-8.13-17h6.4c.76 0 1.49.14 2-.4L84.28 26a2.75 2.75 0 0 0 0-4 2.86 2.86 0 0 0-4.06 0l-6 6H47v60.08c9-.58 17.72-6 23.36-12h4.8l6 6.06a2.87 2.87 0 1 0 4.06-4l-6.88-7a3 3 0 0 0-2-1h-2.2a29.91 29.91 0 0 0 3.56-14h9.41a3 3 0 0 0 0-6zM26.42 24.08h37.16a17.81 17.81 0 0 0-8.69-15.56l3.75-3.67a2.82 2.82 0 0 0 0-4 2.87 2.87 0 0 0-4.06 0l-5.43 5.43a18.41 18.41 0 0 0-8.31 0L35.41.87a2.87 2.87 0 1 0-4.06 4.06l3.75 3.6a17.81 17.81 0 0 0-8.68 15.55z"/></svg>