<svg xmlns="http://www.w3.org/2000/svg" viewBox="0 0 97.73 98.54" fill="#313546"><path d="M85.4 63.28c-8.2 4-20.7-5-27.92-20S50.81 13.03 59.01 9s20.7 5 27.92 20 6.52 30.42-1.53 34.28zm-30.28-62c-3.2 1.52-7 7.64-10.42 14.85-9 18.34-22.77 32.5-40 40.84-4.3 2.08-6.11 8.2-3.47 13.61s8.33 8.19 12.78 6.11l.27-.14c.84-.42 1.81-.83 2.64-1.25a2.46 2.46 0 0 1 3.2 1.11l8.75 18 1.39 2.78a2.37 2.37 0 0 0 3.2 1.09l13.47-6.53a2.44 2.44 0 0 0-.42-4.58 7.81 7.81 0 0 0-1.8-.14l-7.23-14.7a2.49 2.49 0 0 1 1.81-3.48 91.41 91.41 0 0 1 31.8 1.43c7.78 1.67 14.86 2.5 18.06.84 10.55-5.14 11.52-25 2.08-44.31C81.79 7.61 65.67-3.92 55.12 1.22z"/></svg>