<svg xmlns="http://www.w3.org/2000/svg" viewBox="0 0 100 100" fill="#313546"><path d="M45 60h10v10H45zM50 20c-8.3 0-15 6.7-15 15h10c-.2-2.6 1.8-4.8 4.4-5h.6c2.6-.2 4.8 1.8 5 4.4v.6c.1 1.6-.7 3.1-2 4-5.2 3.6-8.2 9.7-8 16h10c0-3.5 1-6 4-8 6.6-5 8-14.4 3-21-2.8-3.8-7.3-6-12-6z"/><path d="M50 80c-1.8.1-3.7-.1-5.5-.5h-1L25 86V72.5L23 71c-8-7-13-16-13-26 0-19.5 18-35 40-35s40 15.5 40 35-18 35-40 35zm0-80C22.5 0 0 20 0 45c0 12 5.5 23.5 15 32v23l29.5-10.5c1.8.4 3.7.6 5.5.5 27.5 0 50-20 50-45S77.5 0 50 0z"/></svg>