<?xml version="1.0" encoding="UTF-8" standalone="no"?>
<svg
   xmlns:dc="http://purl.org/dc/elements/1.1/"
   xmlns:cc="http://creativecommons.org/ns#"
   xmlns:rdf="http://www.w3.org/1999/02/22-rdf-syntax-ns#"
   xmlns:svg="http://www.w3.org/2000/svg"
   xmlns="http://www.w3.org/2000/svg"
   xmlns:sodipodi="http://sodipodi.sourceforge.net/DTD/sodipodi-0.dtd"
   xmlns:inkscape="http://www.inkscape.org/namespaces/inkscape"
   version="1.1"
   x="0px"
   y="0px"
   viewBox="0 0 100 100"
   id="svg2733"
   sodipodi:docname="links.svg"
   width="100"
   height="100"
   inkscape:version="0.92.4 (5da689c313, 2019-01-14)">
  <metadata
     id="metadata2739">
    <rdf:RDF>
      <cc:Work
         rdf:about="">
        <dc:format>image/svg+xml</dc:format>
        <dc:type
           rdf:resource="http://purl.org/dc/dcmitype/StillImage" />
        <dc:title></dc:title>
      </cc:Work>
    </rdf:RDF>
  </metadata>
  <defs
     id="defs2737" />
  <sodipodi:namedview
     pagecolor="#ffffff"
     bordercolor="#666666"
     borderopacity="1"
     objecttolerance="10"
     gridtolerance="10"
     guidetolerance="10"
     inkscape:pageopacity="0"
     inkscape:pageshadow="2"
     inkscape:window-width="1920"
     inkscape:window-height="1103"
     id="namedview2735"
     showgrid="false"
     inkscape:zoom="1.888"
     inkscape:cx="50"
     inkscape:cy="62.5"
     inkscape:window-x="0"
     inkscape:window-y="27"
     inkscape:window-maximized="1"
     inkscape:current-layer="svg2733" />
  <g
     transform="translate(-9.2380714e-6,-952.357)"
     id="g2727"
     style="fill:#313546;fill-opacity:1">
    <path
       style="color:#000000;font-style:normal;font-variant:normal;font-weight:normal;font-stretch:normal;font-size:medium;line-height:normal;font-family:Sans;-inkscape-font-specification:Sans;text-indent:0;text-align:start;text-decoration:none;text-decoration-line:none;letter-spacing:normal;word-spacing:normal;text-transform:none;writing-mode:lr-tb;direction:ltr;baseline-shift:baseline;text-anchor:start;display:inline;overflow:visible;visibility:visible;opacity:1;fill:#313546;fill-opacity:1;stroke:none;stroke-width:4;marker:none;enable-background:accumulate"
       d="M 75.71875,14 C 75.481633,14.0021 75.238657,14.0064 75,14.03125 c -1.909255,0.19879 -3.823674,1.1254 -5.3125,2.625 L 53.40625,33.0625 A 2.0002,2.0002 0 1 0 56.25,35.875 L 72.5,19.46875 c 1.767656,-1.78044 3.922202,-1.80344 4.875,-0.84375 l 12,12.0625 c 0.952799,0.95969 0.923903,3.15706 -0.84375,4.9375 L 62.8125,61.53125 c -1.767647,1.7806 -3.92225,1.80345 -4.875,0.84375 L 46.8125,51.15625 A 2.0108526,2.0108526 0 1 0 43.96875,54 L 55.125,65.1875 c 2.843386,2.8641 7.553613,2.15545 10.53125,-0.84375 l 25.6875,-25.875 c 2.977655,-2.9992 3.718433,-7.72974 0.875,-10.59375 l -12,-12.09375 C 78.974747,14.52825 77.378572,13.985321 75.71875,14 Z M 40.375,32.96875 c -0.237117,0.0012 -0.480094,0.0064 -0.71875,0.03125 -1.909247,0.19877 -3.823684,1.12542 -5.3125,2.625 L 8.65625,61.53125 c -2.9776058,2.9993 -3.7184262,7.6984 -0.875,10.5625 l 12,12.09375 c 2.843465,2.8639 7.553602,2.1242 10.53125,-0.875 L 46.59375,66.9375 A 2.0108349,2.0108349 0 0 0 43.75,64.09375 L 27.5,80.5 c -1.767638,1.7804 -3.922209,1.8347 -4.875,0.875 l -12,-12.09375 c -0.9528304,-0.9597 -0.9239288,-3.157 0.84375,-4.9375 l 25.71875,-25.875 c 1.767614,-1.7804 3.922183,-1.83472 4.875,-0.875 L 53.1875,48.8125 A 2.0002,2.0002 0 1 0 56.03125,46 L 44.875,34.78125 c -1.243992,-1.253 -2.84018,-1.821188 -4.5,-1.8125 z"
       transform="translate(0,952.36218)"
       id="path2725"
       inkscape:connector-curvature="0" />
  </g>
</svg>
