<?xml version="1.0" encoding="UTF-8" standalone="no"?>
<svg
   xmlns:dc="http://purl.org/dc/elements/1.1/"
   xmlns:cc="http://creativecommons.org/ns#"
   xmlns:rdf="http://www.w3.org/1999/02/22-rdf-syntax-ns#"
   xmlns:svg="http://www.w3.org/2000/svg"
   xmlns="http://www.w3.org/2000/svg"
   xmlns:sodipodi="http://sodipodi.sourceforge.net/DTD/sodipodi-0.dtd"
   xmlns:inkscape="http://www.inkscape.org/namespaces/inkscape"
   version="1.1"
   x="0px"
   y="0px"
   viewBox="0 0 64 64"
   xml:space="preserve"
   id="svg899"
   sodipodi:docname="history.svg"
   width="64"
   height="64"
   inkscape:version="0.92.4 (5da689c313, 2019-01-14)"><metadata
     id="metadata905"><rdf:RDF><cc:Work
         rdf:about=""><dc:format>image/svg+xml</dc:format><dc:type
           rdf:resource="http://purl.org/dc/dcmitype/StillImage" /><dc:title></dc:title></cc:Work></rdf:RDF></metadata><defs
     id="defs903" /><sodipodi:namedview
     pagecolor="#ffffff"
     bordercolor="#666666"
     borderopacity="1"
     objecttolerance="10"
     gridtolerance="10"
     guidetolerance="10"
     inkscape:pageopacity="0"
     inkscape:pageshadow="2"
     inkscape:window-width="1920"
     inkscape:window-height="1103"
     id="namedview901"
     showgrid="false"
     inkscape:zoom="2.95"
     inkscape:cx="32"
     inkscape:cy="40"
     inkscape:window-x="0"
     inkscape:window-y="27"
     inkscape:window-maximized="1"
     inkscape:current-layer="svg899" /><path
     d="M 61.383,8.076 C 61.008,7.919 60.579,8.006 60.293,8.293 L 55,13.586 V 9 C 55,5.141 51.86,2 48,2 H 9 C 5.075,2 2,5.124 2,9.111 2,12.358 4.691,15 8,15 10.757,15 13,12.797 13,10.089 13,7.813 11.116,5.96 8.8,5.96 6.837,5.96 5.24,7.531 5.24,9.463 h 2 C 7.24,8.634 7.94,7.96 8.8,7.96 10.013,7.96 11,8.915 11,10.089 11,11.694 9.654,13 8,13 5.794,13 4,11.256 4,9.111 4,6.197 6.149,4 9,4 c 3.309,0 6,2.691 6,6 v 47 c 0,2.757 2.243,5 5,5 h 37 c 2.757,0 5,-2.243 5,-5 v -4 c 0,-0.553 -0.448,-1 -1,-1 H 55 V 32.398 C 59.514,27.716 62,21.58 62,15.059 V 9 C 62,8.596 61.756,8.23 61.383,8.076 Z M 60,57 c 0,1.654 -1.346,3 -3,3 H 23.998 C 24.626,59.164 25,58.125 25,57 V 54 H 60 Z M 24,52 c -0.552,0 -1,0.447 -1,1 v 4 c 0,1.654 -1.346,3 -3,3 -1.654,0 -3,-1.346 -3,-3 V 10 C 17,7.61 15.941,5.467 14.274,4 H 48 c 2.757,0 5,2.243 5,5 v 6.586 L 35.293,33.293 C 35.105,33.48 35,33.734 35,34 v 7.586 l -6.707,6.707 1.414,1.414 L 36.414,43 H 44 c 0.265,0 0.52,-0.105 0.707,-0.293 L 53,34.414 V 52 Z M 60,15.059 c 0,6.144 -2.393,11.92 -6.736,16.264 L 43.586,41 H 38.414 L 56.707,22.707 55.293,21.293 37,39.586 v -5.172 l 23,-23 z"
     id="path891"
     inkscape:connector-curvature="0"
     style="fill:#313546;fill-opacity:1" /><path
     d="m 38,28 v -2 h -2 v -4 c 0,-0.292 -0.127,-0.569 -0.349,-0.759 L 30.703,17 35.651,12.759 C 35.873,12.569 36,12.292 36,12 V 8 h 2 V 6 H 35 21 18 v 2 h 2 v 4 c 0,0.292 0.127,0.569 0.349,0.759 L 25.297,17 20.349,21.241 C 20.127,21.431 20,21.708 20,22 v 4 h -2 v 2 h 3 14 z M 26.766,26 28,23.943 29.234,26 Z m 4.8,0 -2.709,-4.515 c -0.361,-0.602 -1.354,-0.602 -1.715,0 L 24.434,26 H 22 v -3.54 l 5.484,-4.701 c 0.222,-0.189 0.349,-0.467 0.349,-0.759 0,-0.292 -0.127,-0.569 -0.349,-0.759 L 22,11.54 V 8 h 12 v 3.54 l -5.484,4.701 c -0.222,0.189 -0.349,0.467 -0.349,0.759 0,0.292 0.127,0.569 0.349,0.759 L 34,22.46 V 26 Z"
     id="path893"
     inkscape:connector-curvature="0"
     style="fill:#313546;fill-opacity:1" /></svg>